<svg xmlns="http://www.w3.org/2000/svg" width="600" height="300" viewBox="0 0 600 300"><rect width="100%" height="100%" fill="#DDDDDD"/><path fill="#999999" d="M124.11 130.13v32.53h-6.08v-32.53h6.08Zm11.95 32.53h-5.56v-23.09h3.4q1.08 0 1.41 1.02l.36 1.71q.61-.68 1.27-1.24.67-.56 1.42-.97.76-.4 1.62-.64.87-.24 1.9-.24 2.19 0 3.59 1.19 1.41 1.18 2.11 3.13.54-1.14 1.35-1.96.81-.82 1.77-1.34.97-.52 2.06-.77t2.2-.25q1.91 0 3.39.59 1.49.59 2.5 1.71 1.01 1.13 1.54 2.75.53 1.61.53 3.71v14.69h-5.56v-14.69q0-2.21-.96-3.32-.97-1.12-2.84-1.12-.85 0-1.59.3-.73.29-1.28.84t-.86 1.38q-.32.84-.32 1.92v14.69h-5.58v-14.69q0-2.32-.93-3.38-.94-1.06-2.74-1.06-1.21 0-2.26.6-1.04.6-1.94 1.63v16.9Zm44.32-5.96v-3.9q-2.41.12-4.05.42-1.64.31-2.63.78-.99.47-1.42 1.1-.43.63-.43 1.37 0 1.47.87 2.1.87.63 2.26.63 1.71 0 2.96-.62t2.44-1.88Zm-11.74-12.13-.99-1.78q3.98-3.64 9.58-3.64 2.03 0 3.62.66 1.6.67 2.7 1.85 1.11 1.18 1.68 2.82.57 1.64.57 3.6v14.58h-2.52q-.78 0-1.21-.24-.43-.23-.68-.95l-.49-1.67q-.88.79-1.71 1.39-.83.59-1.73 1-.9.4-1.93.62-1.02.21-2.26.21-1.46 0-2.7-.39-1.24-.4-2.14-1.18-.9-.79-1.39-1.96-.5-1.17-.5-2.72 0-.88.3-1.75.29-.86.95-1.65.67-.79 1.72-1.49 1.06-.69 2.6-1.21t3.59-.85q2.05-.32 4.68-.39v-1.35q0-2.32-.99-3.43-.99-1.12-2.86-1.12-1.35 0-2.24.32-.88.31-1.56.71-.67.39-1.23.71-.55.31-1.22.31-.59 0-.99-.3-.41-.3-.65-.71Zm30.82 5.98q1.04 0 1.8-.28.77-.28 1.27-.77.51-.5.77-1.19.26-.7.26-1.53 0-1.71-1.03-2.72-1.02-1-3.07-1t-3.07 1q-1.02 1.01-1.02 2.72 0 .81.25 1.5.26.7.77 1.21.51.5 1.28.78.78.28 1.79.28Zm6.28 13.14q0-.67-.41-1.1-.4-.42-1.1-.66-.7-.24-1.63-.35-.93-.11-1.98-.17-1.05-.05-2.16-.1t-2.17-.18q-.92.52-1.5 1.21-.57.7-.57 1.62 0 .61.3 1.14.31.53.97.91.66.38 1.72.6 1.06.21 2.59.21 1.55 0 2.68-.23 1.12-.24 1.85-.66.73-.41 1.07-.99.34-.57.34-1.25Zm-1.1-23.33h6.63v2.07q0 .99-1.19 1.22l-2.07.38q.47 1.19.47 2.61 0 1.71-.68 3.09-.69 1.39-1.9 2.36-1.22.96-2.87 1.49-1.66.53-3.57.53-.67 0-1.3-.07t-1.24-.18q-1.08.66-1.08 1.47 0 .69.64 1.02.64.33 1.7.46 1.06.14 2.41.17t2.76.14q1.42.12 2.77.4t2.41.89q1.06.6 1.7 1.65.64 1.05.64 2.69 0 1.53-.76 2.97-.75 1.44-2.18 2.57-1.43 1.12-3.51 1.81-2.08.68-4.73.68-2.61 0-4.55-.5-1.93-.51-3.22-1.35-1.28-.85-1.91-1.95-.63-1.1-.63-2.3 0-1.62.98-2.71.98-1.09 2.69-1.74-.92-.47-1.46-1.26-.54-.79-.54-2.07 0-.52.19-1.07t.56-1.09q.37-.54.93-1.02.57-.49 1.33-.87-1.75-.94-2.76-2.52-1-1.57-1-3.69 0-1.71.69-3.09.69-1.39 1.91-2.37 1.23-.97 2.9-1.49 1.68-.52 3.66-.52 1.49 0 2.79.3 1.31.31 2.39.89Zm14.53 8.1h10.49q0-1.08-.31-2.03-.3-.96-.91-1.68-.61-.72-1.54-1.14-.93-.41-2.17-.41-2.41 0-3.79 1.37-1.39 1.37-1.77 3.89Zm14.18 3.36h-14.29q.13 1.77.63 3.07.49 1.29 1.3 2.13.81.85 1.93 1.26 1.11.42 2.46.42 1.35 0 2.33-.31.98-.32 1.71-.7.73-.38 1.28-.7.55-.31 1.07-.31.7 0 1.04.51l1.59 2.03q-.92 1.08-2.07 1.81-1.14.73-2.39 1.17-1.25.44-2.55.62-1.29.18-2.5.18-2.41 0-4.48-.8-2.07-.8-3.6-2.36-1.53-1.57-2.41-3.87-.88-2.31-.88-5.35 0-2.36.77-4.44.76-2.08 2.19-3.62t3.49-2.44q2.06-.91 4.65-.91 2.18 0 4.02.7 1.85.7 3.18 2.04 1.32 1.34 2.08 3.28.75 1.95.75 4.45 0 1.26-.27 1.7-.27.44-1.03.44Zm45.13-12.25h4.23l-7.33 23.09h-4.46q-.76 0-1.06-.99l-4.14-13.34q-.2-.68-.37-1.34-.17-.67-.28-1.34-.13.67-.3 1.36-.17.69-.37 1.36l-4.21 13.3q-.27.99-1.19.99h-4.28l-7.31-23.09h4.43q.61 0 1.04.3.42.29.56.74l3.31 12.33q.24 1.01.43 1.98.2.97.33 1.94.25-.97.53-1.94t.6-1.98l3.82-12.37q.14-.45.53-.75.39-.29.96-.29h2.45q.58 0 1 .29.42.3.55.75l3.71 12.37q.3 1.01.55 1.99.26.98.51 1.95.29-1.91.83-3.94l3.4-12.33q.16-.45.56-.74.41-.3.97-.3Zm7.56 0h5.58v23.09h-5.58v-23.09Zm6.35-6.72q0 .72-.3 1.35-.29.63-.77 1.1-.49.47-1.14.75-.65.29-1.39.29-.72 0-1.37-.29-.64-.28-1.11-.75-.47-.47-.75-1.1-.28-.63-.28-1.35 0-.74.28-1.4.28-.65.75-1.12.47-.47 1.11-.76.65-.28 1.37-.28.74 0 1.39.28.65.29 1.14.76.48.47.77 1.12.3.66.3 1.4Zm12.6 30.17q-3.02 0-4.63-1.7-1.61-1.7-1.61-4.69v-12.89h-2.36q-.45 0-.76-.29-.32-.3-.32-.88v-2.21l3.71-.6 1.17-6.3q.12-.45.43-.7.32-.25.81-.25h2.88v7.27h6.17v3.96h-6.17v12.51q0 1.08.53 1.69.53.6 1.45.6.52 0 .87-.12.35-.13.6-.26.26-.13.47-.26.2-.12.4-.12.25 0 .41.12.15.13.33.37l1.67 2.7q-1.22 1.02-2.79 1.53-1.58.52-3.26.52Zm14.6-33.8v12.83q1.35-1.26 2.97-2.05 1.62-.79 3.8-.79 1.89 0 3.35.65 1.47.64 2.44 1.8.98 1.16 1.49 2.76.51 1.61.51 3.55v14.69h-5.56v-14.69q0-2.12-.97-3.28-.97-1.16-2.95-1.16-1.44 0-2.7.66-1.26.65-2.38 1.77v16.7h-5.56v-33.44h5.56Zm36.31 17.1v10.36q.95 1.14 2.06 1.61 1.12.48 2.35.48 1.29 0 2.31-.46t1.74-1.44q.72-.98 1.11-2.5.38-1.52.38-3.63 0-3.81-1.26-5.51-1.26-1.7-3.62-1.7-1.6 0-2.79.74-1.2.73-2.28 2.05Zm0-17.1v13.19q1.4-1.46 3.1-2.33 1.7-.87 3.88-.87 2 0 3.61.79 1.61.79 2.74 2.26 1.14 1.48 1.75 3.57.61 2.09.61 4.7 0 2.82-.7 5.11-.7 2.3-1.99 3.93-1.3 1.63-3.12 2.53-1.82.9-4.05.9-1.08 0-1.96-.22-.87-.21-1.62-.59-.74-.38-1.36-.94-.62-.55-1.18-1.22l-.25 1.55q-.13.59-.46.83-.32.25-.89.25h-3.66v-33.44h5.55Zm30.2 9.99q2.56 0 4.67.84 2.1.83 3.6 2.36 1.49 1.53 2.3 3.73.81 2.21.81 4.93 0 2.75-.81 4.95-.81 2.21-2.3 3.76-1.5 1.55-3.6 2.39-2.11.83-4.67.83-2.59 0-4.7-.83-2.12-.84-3.62-2.39-1.49-1.55-2.31-3.76-.82-2.2-.82-4.95 0-2.72.82-4.93.82-2.2 2.31-3.73 1.5-1.53 3.62-2.36 2.11-.84 4.7-.84Zm0 19.51q2.88 0 4.26-1.93 1.39-1.94 1.39-5.67 0-3.74-1.39-5.69-1.38-1.96-4.26-1.96-2.93 0-4.33 1.97-1.41 1.97-1.41 5.68t1.41 5.66q1.4 1.94 4.33 1.94Zm20.54-17.75.34 2.61q1.08-2.07 2.56-3.25 1.49-1.18 3.51-1.18 1.6 0 2.57.7l-.36 4.16q-.11.4-.33.57-.21.17-.57.17-.34 0-1-.11-.67-.11-1.3-.11-.92 0-1.64.27-.72.27-1.29.77-.58.51-1.02 1.23-.43.72-.82 1.64v14.22h-5.55v-23.09H405q.85 0 1.19.31.34.3.45 1.09Zm26.37 14.85v-10.35q-.94-1.15-2.06-1.62-1.11-.47-2.39-.47-1.26 0-2.28.47-1.01.47-1.73 1.43-.72.95-1.1 2.43-.38 1.47-.38 3.48 0 2.02.32 3.43.33 1.4.94 2.29.6.89 1.48 1.28.88.4 1.96.4 1.73 0 2.95-.72 1.21-.72 2.29-2.05Zm0-26.6h5.56v33.44h-3.4q-1.1 0-1.39-1.01l-.48-2.23q-1.39 1.6-3.2 2.59-1.81.99-4.22.99-1.89 0-3.47-.79-1.57-.79-2.71-2.28-1.13-1.5-1.75-3.7-.62-2.21-.62-5.04 0-2.57.7-4.78.69-2.2 2-3.82 1.3-1.62 3.13-2.53 1.82-.91 4.09-.91 1.94 0 3.31.61 1.37.6 2.45 1.64v-12.18Zm15.44 19.24h10.48q0-1.08-.3-2.03-.31-.96-.91-1.68-.61-.72-1.55-1.14-.93-.41-2.17-.41-2.4 0-3.79 1.37-1.38 1.37-1.76 3.89Zm14.17 3.36h-14.29q.14 1.77.63 3.07.5 1.29 1.31 2.13.81.85 1.92 1.26 1.12.42 2.47.42t2.32-.31q.98-.32 1.71-.7.74-.38 1.29-.7.55-.31 1.07-.31.69 0 1.03.51l1.6 2.03q-.92 1.08-2.07 1.81t-2.4 1.17q-1.25.44-2.54.62t-2.51.18q-2.41 0-4.48-.8-2.07-.8-3.6-2.36-1.53-1.57-2.4-3.87-.88-2.31-.88-5.35 0-2.36.76-4.44.77-2.08 2.2-3.62 1.43-1.54 3.48-2.44 2.06-.91 4.65-.91 2.18 0 4.03.7 1.84.7 3.17 2.04 1.33 1.34 2.08 3.28.76 1.95.76 4.45 0 1.26-.27 1.7-.27.44-1.04.44Zm10.37-10.85.34 2.61q1.08-2.07 2.57-3.25 1.48-1.18 3.51-1.18 1.59 0 2.56.7l-.36 4.16q-.11.4-.33.57-.21.17-.57.17-.34 0-1-.11-.66-.11-1.29-.11-.93 0-1.65.27-.72.27-1.29.77-.57.51-1.01 1.23-.44.72-.82 1.64v14.22h-5.56v-23.09h3.26q.86 0 1.19.31.34.3.45 1.09Z"/></svg>